<svg xmlns="http://www.w3.org/2000/svg" viewBox="0 0 204 40">
    <defs>
        <style>
            .cls-1{fill:#707070}.cls-2{fill:#70ba3d}.cls-3{fill:#fff}.cls-4{fill:#777}
        </style>
    </defs>
    <g id="logo" transform="translate(-560 -22)">
        <g id="logo-2" data-name="logo">
            <path id="Path_5702" d="M11.338 15.757a7.417 7.417 0 0 0 2.317-.326A4.41 4.41 0 0 0 15.3 14.5a3.769 3.769 0 0 0 .979-1.478 5.553 5.553 0 0 0 .323-1.944 5.037 5.037 0 0 0-.323-1.847 3.649 3.649 0 0 0-.97-1.408 4.339 4.339 0 0 0-1.634-.889 7.881 7.881 0 0 0-2.335-.308H7.729v9.132zm0-12.792a15.105 15.105 0 0 1 4.508.6 8.731 8.731 0 0 1 3.143 1.672 6.63 6.63 0 0 1 1.84 2.563 8.69 8.69 0 0 1 .6 3.273 8.879 8.879 0 0 1-.629 3.387 7.029 7.029 0 0 1-1.886 2.648 8.817 8.817 0 0 1-3.152 1.724 14.348 14.348 0 0 1-4.427.616H7.729v8.956H2.9V2.966zM49.9 15.687a13.965 13.965 0 0 1-.943 5.182 11.926 11.926 0 0 1-6.815 6.844 14.3 14.3 0 0 1-5.388.977 14.249 14.249 0 0 1-5.37-.977 12.006 12.006 0 0 1-6.842-6.844 13.849 13.849 0 0 1-.952-5.182 13.849 13.849 0 0 1 .952-5.182 12.006 12.006 0 0 1 6.838-6.844 14.249 14.249 0 0 1 5.37-.977 14.859 14.859 0 0 1 3.717.449 13.207 13.207 0 0 1 3.2 1.267 11.789 11.789 0 0 1 2.613 1.988A12.1 12.1 0 0 1 48.243 9a12.65 12.65 0 0 1 1.23 3.132 14.614 14.614 0 0 1 .427 3.555zm-4.939 0a11.46 11.46 0 0 0-.575-3.757 8.012 8.012 0 0 0-1.634-2.824 7 7 0 0 0-2.577-1.777 9.81 9.81 0 0 0-6.842 0 7.082 7.082 0 0 0-2.586 1.777A7.939 7.939 0 0 0 29.1 11.93a11.46 11.46 0 0 0-.575 3.757 11.46 11.46 0 0 0 .575 3.757 7.849 7.849 0 0 0 1.643 2.815 7.133 7.133 0 0 0 2.586 1.768 9.81 9.81 0 0 0 6.842 0 7.048 7.048 0 0 0 2.577-1.768 7.92 7.92 0 0 0 1.634-2.815 11.46 11.46 0 0 0 .575-3.757zm26.52-10.98a2.524 2.524 0 0 1-.467 1.478l-13.325 18.44h13.487v3.783H51.422v-1.865a1.864 1.864 0 0 1 .126-.677 2.823 2.823 0 0 1 .323-.607L65.232 6.731H52.266V2.966h19.215zm8.71 23.7h-4.849V2.966h4.849zM104.13 6.854H96.3v21.554h-4.831V6.854h-7.83V2.966h20.491zm8.261 21.554h-4.849V2.966h4.849zM123.04 6.731v7.531h9.733v3.783h-9.733v10.363h-4.849V2.966h16.378v3.765zm20.329 0v7.531h9.731v3.783h-9.733v10.363h-4.847V2.966h16.38v3.765z" class="cls-1" data-name="Path 5702" transform="translate(609.102 21.316)"/>
            <path id="Path_5703" d="M2.466 8.89h-1v-7.4h1zm7.885-7.4v7.4h-.5a.43.43 0 0 1-.2-.041.5.5 0 0 1-.157-.139L5.213 3.133q.01.129.015.253t.005.232V8.89h-.877v-7.4h.516a.705.705 0 0 1 .114.008.291.291 0 0 1 .083.026.314.314 0 0 1 .072.052.792.792 0 0 1 .077.085L9.5 7.233l-.018-.261q-.008-.127-.008-.24V1.491zm2.892.816v2.588h3.041v.816h-3.042v3.18h-1v-7.4H16.8v.816zm11.608 2.887a4.271 4.271 0 0 1-.263 1.526 3.494 3.494 0 0 1-.744 1.2 3.323 3.323 0 0 1-1.154.777 4.148 4.148 0 0 1-2.977 0 3.329 3.329 0 0 1-1.152-.777 3.494 3.494 0 0 1-.744-1.2 4.271 4.271 0 0 1-.263-1.526 4.271 4.271 0 0 1 .263-1.526 3.522 3.522 0 0 1 .744-1.2 3.342 3.342 0 0 1 1.152-.782 4.112 4.112 0 0 1 2.977 0 3.336 3.336 0 0 1 1.154.782 3.522 3.522 0 0 1 .744 1.2 4.271 4.271 0 0 1 .263 1.526zm-1.028 0a3.761 3.761 0 0 0-.186-1.224 2.589 2.589 0 0 0-.527-.917 2.286 2.286 0 0 0-.826-.576 3.006 3.006 0 0 0-2.164 0 2.31 2.31 0 0 0-.829.576 2.567 2.567 0 0 0-.529.917 3.761 3.761 0 0 0-.186 1.224 3.737 3.737 0 0 0 .186 1.221 2.571 2.571 0 0 0 .529.914 2.283 2.283 0 0 0 .829.573 3.043 3.043 0 0 0 2.164 0 2.259 2.259 0 0 0 .826-.573 2.592 2.592 0 0 0 .527-.914 3.737 3.737 0 0 0 .186-1.221zm4.508-.119a2.533 2.533 0 0 0 .767-.106 1.571 1.571 0 0 0 .558-.3 1.242 1.242 0 0 0 .338-.462 1.509 1.509 0 0 0 .114-.594 1.182 1.182 0 0 0-.434-1 2.107 2.107 0 0 0-1.3-.336h-1.096v2.798zm3.418 3.816h-.888a.438.438 0 0 1-.4-.212l-1.924-2.643a.569.569 0 0 0-.188-.178.686.686 0 0 0-.312-.054h-.759V8.89h-1v-7.4h2.091a4.57 4.57 0 0 1 1.213.142 2.316 2.316 0 0 1 .844.411 1.644 1.644 0 0 1 .493.648 2.166 2.166 0 0 1 .16.849 2.129 2.129 0 0 1-.124.733 1.937 1.937 0 0 1-.359.612 2.147 2.147 0 0 1-.573.462 2.837 2.837 0 0 1-.767.289.99.99 0 0 1 .33.315zm8.7-7.4v7.4h-.878V3.453q0-.108.008-.232t.018-.253l-2.539 4.626a.384.384 0 0 1-.361.232h-.145a.384.384 0 0 1-.361-.232L33.6 2.947a4.519 4.519 0 0 1 .031.506V8.89h-.878v-7.4h.738a.642.642 0 0 1 .207.026.3.3 0 0 1 .139.145l2.556 4.554q.062.124.121.258t.111.274q.052-.139.108-.276a2.8 2.8 0 0 1 .124-.261l2.51-4.549a.274.274 0 0 1 .137-.145.667.667 0 0 1 .209-.026zm5.82 4.653l-1.162-3.01Q45.056 3 45 2.82t-.108-.38a5.626 5.626 0 0 1-.222.7l-1.163 3.003zm2.087 2.747h-.775a.333.333 0 0 1-.217-.067.413.413 0 0 1-.124-.17l-.692-1.787h-3.32l-.692 1.787a.363.363 0 0 1-.119.165.33.33 0 0 1-.217.072h-.775l2.959-7.4H45.4zm5.98-6.558h-2.4V8.89h-1V2.332h-2.4v-.841h5.794zm2.1 6.558h-1v-7.4h1zm8.727-3.7a4.271 4.271 0 0 1-.263 1.529 3.494 3.494 0 0 1-.744 1.2A3.323 3.323 0 0 1 63 8.691a4.148 4.148 0 0 1-2.977 0 3.329 3.329 0 0 1-1.152-.777 3.494 3.494 0 0 1-.744-1.2 4.271 4.271 0 0 1-.263-1.526 4.271 4.271 0 0 1 .263-1.526 3.522 3.522 0 0 1 .744-1.2 3.341 3.341 0 0 1 1.152-.782 4.112 4.112 0 0 1 2.977 0 3.336 3.336 0 0 1 1.154.782 3.522 3.522 0 0 1 .744 1.2 4.271 4.271 0 0 1 .261 1.531zm-1.028 0a3.761 3.761 0 0 0-.186-1.224 2.589 2.589 0 0 0-.527-.917 2.286 2.286 0 0 0-.826-.576 3.006 3.006 0 0 0-2.164 0 2.31 2.31 0 0 0-.829.576 2.567 2.567 0 0 0-.529.917 3.761 3.761 0 0 0-.186 1.224 3.737 3.737 0 0 0 .186 1.221 2.571 2.571 0 0 0 .529.914 2.283 2.283 0 0 0 .829.573 3.043 3.043 0 0 0 2.164 0 2.259 2.259 0 0 0 .826-.573 2.592 2.592 0 0 0 .527-.914 3.737 3.737 0 0 0 .182-1.218zm8.453-3.7v7.4h-.5a.43.43 0 0 1-.2-.041.5.5 0 0 1-.157-.139l-4.285-5.577q.01.129.015.253t.005.232V8.89h-.878v-7.4h.516a.706.706 0 0 1 .114.008.291.291 0 0 1 .083.026.314.314 0 0 1 .072.052.793.793 0 0 1 .077.085l4.281 5.572-.018-.261q-.008-.127-.008-.24V1.491zm9.228.842h-2.4V8.89h-1V2.332h-2.4v-.841h5.794zm5.659 5.742l-.005.816h-4.56v-7.4h4.56v.816h-3.562v2.458h2.882v.785h-2.882v2.525zm6.434-.713a.191.191 0 0 1 .145.067l.4.429a3.166 3.166 0 0 1-1.1.821 3.773 3.773 0 0 1-1.567.294 3.664 3.664 0 0 1-1.455-.272 3.18 3.18 0 0 1-1.11-.775 3.5 3.5 0 0 1-.713-1.2 4.466 4.466 0 0 1-.253-1.534 4.307 4.307 0 0 1 .263-1.534 3.51 3.51 0 0 1 .741-1.2 3.314 3.314 0 0 1 1.14-.773 3.806 3.806 0 0 1 1.472-.276 3.585 3.585 0 0 1 1.394.253 3.51 3.51 0 0 1 1.064.687l-.33.46a.271.271 0 0 1-.08.085.23.23 0 0 1-.132.034.41.41 0 0 1-.227-.1 3.451 3.451 0 0 0-.351-.225 2.612 2.612 0 0 0-1.343-.325 2.689 2.689 0 0 0-1.048.2A2.288 2.288 0 0 0 90 3.05a2.657 2.657 0 0 0-.534.919 3.667 3.667 0 0 0-.191 1.224 3.57 3.57 0 0 0 .2 1.234 2.725 2.725 0 0 0 .542.917 2.292 2.292 0 0 0 .811.571 2.581 2.581 0 0 0 1.01.2 4.164 4.164 0 0 0 .6-.039 2.435 2.435 0 0 0 .491-.121 2.065 2.065 0 0 0 .418-.209 2.981 2.981 0 0 0 .385-.3.267.267 0 0 1 .173-.084zm7.7-5.871v7.4h-1V5.524h-3.998V8.89h-1v-7.4h1v3.3h3.989v-3.3zm7.885 0v7.4h-.5a.43.43 0 0 1-.2-.041.5.5 0 0 1-.157-.139l-4.281-5.577q.01.129.015.253t.005.232V8.89h-.878v-7.4h.516a.705.705 0 0 1 .114.008.291.291 0 0 1 .083.026.314.314 0 0 1 .072.052.792.792 0 0 1 .077.085l4.281 5.572-.018-.261q-.008-.127-.008-.24V1.491zm8.727 3.7a4.271 4.271 0 0 1-.263 1.526 3.494 3.494 0 0 1-.744 1.2 3.323 3.323 0 0 1-1.154.777 4.148 4.148 0 0 1-2.977 0 3.329 3.329 0 0 1-1.152-.777 3.494 3.494 0 0 1-.744-1.2 4.271 4.271 0 0 1-.263-1.526 4.271 4.271 0 0 1 .263-1.526 3.522 3.522 0 0 1 .744-1.2 3.341 3.341 0 0 1 1.152-.782 4.112 4.112 0 0 1 2.977 0 3.336 3.336 0 0 1 1.154.782 3.522 3.522 0 0 1 .744 1.2 4.271 4.271 0 0 1 .258 1.529zm-1.028 0A3.76 3.76 0 0 0 117 3.969a2.589 2.589 0 0 0-.527-.917 2.286 2.286 0 0 0-.826-.576 3.006 3.006 0 0 0-2.164 0 2.31 2.31 0 0 0-.829.576 2.568 2.568 0 0 0-.529.917 3.761 3.761 0 0 0-.186 1.224 3.737 3.737 0 0 0 .186 1.221 2.571 2.571 0 0 0 .529.914 2.283 2.283 0 0 0 .829.573 3.043 3.043 0 0 0 2.164 0 2.259 2.259 0 0 0 .826-.573 2.592 2.592 0 0 0 .527-.914 3.737 3.737 0 0 0 .189-1.221zm6.656 2.856v.844h-4.2v-7.4h1v6.559zm7.6-2.856a4.271 4.271 0 0 1-.263 1.526 3.494 3.494 0 0 1-.744 1.2 3.323 3.323 0 0 1-1.154.777 4.148 4.148 0 0 1-2.977 0 3.329 3.329 0 0 1-1.152-.777 3.494 3.494 0 0 1-.744-1.2 4.271 4.271 0 0 1-.263-1.526 4.271 4.271 0 0 1 .263-1.526 3.522 3.522 0 0 1 .744-1.2 3.341 3.341 0 0 1 1.152-.782 4.112 4.112 0 0 1 2.977 0 3.336 3.336 0 0 1 1.154.782 3.522 3.522 0 0 1 .744 1.2 4.271 4.271 0 0 1 .255 1.529zm-1.028 0a3.761 3.761 0 0 0-.186-1.224 2.588 2.588 0 0 0-.527-.917 2.286 2.286 0 0 0-.826-.576 3.006 3.006 0 0 0-2.164 0 2.31 2.31 0 0 0-.829.576 2.568 2.568 0 0 0-.529.917 3.761 3.761 0 0 0-.186 1.224 3.737 3.737 0 0 0 .186 1.221 2.571 2.571 0 0 0 .529.914 2.283 2.283 0 0 0 .829.573 3.043 3.043 0 0 0 2.164 0 2.259 2.259 0 0 0 .826-.573 2.592 2.592 0 0 0 .527-.914 3.737 3.737 0 0 0 .178-1.218zm8.469.139v2.84a4.147 4.147 0 0 1-1.19.6 4.605 4.605 0 0 1-1.386.2 4.456 4.456 0 0 1-1.611-.276 3.55 3.55 0 0 1-1.226-.775 3.379 3.379 0 0 1-.782-1.2 4.162 4.162 0 0 1-.274-1.534 4.3 4.3 0 0 1 .266-1.544 3.415 3.415 0 0 1 .756-1.2 3.361 3.361 0 0 1 1.193-.772 4.292 4.292 0 0 1 1.57-.274 4.84 4.84 0 0 1 .816.065 3.75 3.75 0 0 1 .7.186 3.291 3.291 0 0 1 .594.294 3.644 3.644 0 0 1 .511.39l-.284.454a.3.3 0 0 1-.173.132.3.3 0 0 1-.235-.049q-.124-.072-.284-.176a2.477 2.477 0 0 0-.39-.2 3.139 3.139 0 0 0-.542-.163 3.57 3.57 0 0 0-.741-.067 3 3 0 0 0-1.131.2 2.392 2.392 0 0 0-.862.584 2.582 2.582 0 0 0-.547.919 3.611 3.611 0 0 0-.191 1.211 3.652 3.652 0 0 0 .2 1.247 2.612 2.612 0 0 0 .568.935 2.421 2.421 0 0 0 .9.586 3.615 3.615 0 0 0 2.1.085 3.971 3.971 0 0 0 .782-.323V6.1h-1.152a.218.218 0 0 1-.157-.057.185.185 0 0 1-.059-.139v-.572zm2.535 3.558h-1v-7.4h1zm6.455-.816l-.005.816h-4.56v-7.4h4.56v.816h-3.558v2.461h2.881v.785h-2.881v2.525zm5.184-5.427a.38.38 0 0 1-.1.116.221.221 0 0 1-.132.039.368.368 0 0 1-.207-.088q-.119-.088-.3-.194a2.388 2.388 0 0 0-.429-.194 1.844 1.844 0 0 0-.607-.088 1.771 1.771 0 0 0-.591.09 1.267 1.267 0 0 0-.429.245 1.007 1.007 0 0 0-.261.364 1.156 1.156 0 0 0-.088.452.835.835 0 0 0 .152.514 1.313 1.313 0 0 0 .4.349 3.085 3.085 0 0 0 .568.25l.651.219q.333.114.651.256a2.288 2.288 0 0 1 .568.359 1.636 1.636 0 0 1 .4.532 1.77 1.77 0 0 1 .152.775 2.5 2.5 0 0 1-.165.911 2.1 2.1 0 0 1-.483.741 2.258 2.258 0 0 1-.78.5 2.868 2.868 0 0 1-1.051.181 3.2 3.2 0 0 1-1.312-.261 3.078 3.078 0 0 1-1.007-.7l.289-.475a.38.38 0 0 1 .1-.1.236.236 0 0 1 .132-.039.293.293 0 0 1 .152.054q.085.054.194.137t.248.181a2.048 2.048 0 0 0 .318.181 2.15 2.15 0 0 0 .405.137 2.208 2.208 0 0 0 .511.054 1.908 1.908 0 0 0 .635-.1 1.349 1.349 0 0 0 .472-.276 1.2 1.2 0 0 0 .3-.426 1.424 1.424 0 0 0 .1-.553.927.927 0 0 0-.152-.55 1.263 1.263 0 0 0-.4-.359 2.78 2.78 0 0 0-.568-.245l-.651-.207a6.9 6.9 0 0 1-.651-.245 2.1 2.1 0 0 1-.568-.361 1.661 1.661 0 0 1-.4-.555 1.977 1.977 0 0 1-.152-.824 1.96 1.96 0 0 1 .152-.759 1.938 1.938 0 0 1 .444-.651 2.169 2.169 0 0 1 .718-.454 2.62 2.62 0 0 1 .979-.17 3.111 3.111 0 0 1 1.128.2 2.665 2.665 0 0 1 .9.568z" class="cls-1" data-name="Path 5703" transform="translate(610.536 53.028)"/>
        </g>
        <g id="Group_3293" data-name="Group 3293" transform="translate(560 22)">
            <path id="Path_6314" d="M36.33 12.815h-5.49a3.664 3.664 0 0 1-3.664-3.664V3.664A3.664 3.664 0 0 0 23.513 0h-7.037a3.664 3.664 0 0 0-3.664 3.664v5.489a3.664 3.664 0 0 1-3.664 3.664H3.664A3.66 3.66 0 0 0 0 16.476v7.039a3.664 3.664 0 0 0 3.664 3.664h5.489a3.664 3.664 0 0 1 3.664 3.664v5.489A3.664 3.664 0 0 0 16.481 40h7.039a3.664 3.664 0 0 0 3.664-3.664v-5.493a3.664 3.664 0 0 1 3.664-3.664h5.489A3.664 3.664 0 0 0 40 23.515v-7.039a3.673 3.673 0 0 0-3.67-3.661z" class="cls-2" data-name="Path 6314"/>
            <path id="Path_6315" d="M98.592 16.69a24.346 24.346 0 0 0-.3 34.028 3.6 3.6 0 0 0 .3-1.437V43.8a3.68 3.68 0 0 1 3.7-3.657h5.549a3.68 3.68 0 0 0 3.7-3.657v-7.023a3.68 3.68 0 0 0-3.7-3.657H102.3a3.68 3.68 0 0 1-3.7-3.657V16.69z" class="cls-3" data-name="Path 6315" transform="translate(-71.551 -12.971)"/>
            <path id="Path_6316" d="M98.592 42.642v-5.021a3.68 3.68 0 0 1 3.7-3.657h5.549a3.68 3.68 0 0 0 3.7-3.657v-7.022a3.68 3.68 0 0 0-3.7-3.657H102.3a3.68 3.68 0 0 1-3.7-3.657V10.5a3.619 3.619 0 0 0-.439-1.727 24.338 24.338 0 0 0 .439 33.872z" class="cls-4" data-name="Path 6316" transform="translate(-71.552 -6.816)"/>
        </g>
    </g>
</svg>
