<?xml version="1.0" encoding="utf-8"?>
<!-- Generator: Adobe Illustrator 23.0.1, SVG Export Plug-In . SVG Version: 6.00 Build 0)  -->
<svg version="1.1" id="Layer_1" xmlns="http://www.w3.org/2000/svg" xmlns:xlink="http://www.w3.org/1999/xlink" x="0px" y="0px"
	 viewBox="0 0 64 64" enable-background="new 0 0 64 64" xml:space="preserve">
<g>
	<path fill="#94C93D" d="M58.14,20.55h-4.32h-4.46c-3.24,0-5.86-2.62-5.86-5.86v-3.94V5.91c0-3.24-2.62-5.86-5.86-5.86H26.37
		c-3.24,0-5.86,2.62-5.86,5.86v4.32v4.46c0,3.24-2.62,5.86-5.86,5.86h-3.94H5.86C2.62,20.55,0,23.17,0,26.41v11.27
		c0,3.24,2.62,5.86,5.86,5.86h4.32h4.46c3.24,0,5.86,2.62,5.86,5.86v3.94v4.85c0,3.24,2.62,5.86,5.86,5.86h11.27
		c3.24,0,5.86-2.62,5.86-5.86v-4.32V49.4c0-3.24,2.62-5.86,5.86-5.86h3.94h4.85c3.24,0,5.86-2.62,5.86-5.86V26.41
		C64,23.17,61.38,20.55,58.14,20.55z"/>
	<path fill="#FFFFFF" d="M43.49,5.93c-6.94,7.1-11.21,16.81-11.21,27.52c0,10.47,4.08,19.98,10.74,27.03
		c0.3-0.71,0.47-1.49,0.47-2.3v-4.32V49.4c0-3.24,2.62-5.86,5.86-5.86h3.94h4.85c3.24,0,5.86-2.62,5.86-5.86V26.41
		c0-3.24-2.62-5.86-5.86-5.86h-4.32h-4.46c-3.24,0-5.86-2.62-5.86-5.86v-3.94V5.93z"/>
	<path fill="#58585A" d="M43.49,57.45v-3.59V49.4c0-3.24,2.62-5.86,5.86-5.86h3.94h4.85c3.24,0,5.86-2.62,5.86-5.86V26.41
		c0-3.24-2.62-5.86-5.86-5.86h-4.32h-4.46c-3.24,0-5.86-2.62-5.86-5.86v-3.94V5.91c0-1-0.25-1.94-0.7-2.77
		c-6.53,7.03-10.52,16.44-10.52,26.79C32.28,40.64,36.56,50.35,43.49,57.45z"/>
</g>
<g>
</g>
<g>
</g>
<g>
</g>
<g>
</g>
<g>
</g>
<g>
</g>
</svg>
