<svg xmlns="http://www.w3.org/2000/svg" viewBox="0 0 350.04 250.009">
    <defs>
        <style>
            .cls-1{fill:none;stroke:#464547;stroke-miterlimit:10}.cls-2{fill:#464547}.cls-3{fill:#fff}
        </style>
    </defs>
    <g id="_03" data-name="3" transform="translate(.02 .004)">
        <g id="line_1_">
            <path id="Line_104" d="M122.3 0L0 43.7" class="cls-1" data-name="Line 104" transform="translate(208 101.3)"/>
            <path id="Line_105" d="M102.6 97.3L0 0" class="cls-1" data-name="Line 105" transform="translate(208 145)"/>
            <path id="Line_106" d="M83.8 0L0 137.3" class="cls-1" data-name="Line 106" transform="translate(208 7.7)"/>
            <path id="Line_107" d="M0 14.4L95.5 0" class="cls-1" data-name="Line 107" transform="translate(112.5 145)"/>
            <path id="Line_108" d="M22 46.1L0 0" class="cls-1" data-name="Line 108" transform="translate(90.5 113.3)"/>
            <path id="Line_109" d="M92.8 12.9L0 0" class="cls-1" data-name="Line 109" transform="translate(19.7 146.5)"/>
        </g>
        <g id="round_1_">
            <path id="Path_6219" d="M303.9 246.3a7.718 7.718 0 1 1 10.6 2.6 7.774 7.774 0 0 1-10.6-2.6" class="cls-2" data-name="Path 6219"/>
            <path id="Path_6220" d="M2.8 155.5a19.74 19.74 0 1 1 27.1 6.7 19.8 19.8 0 0 1-27.1-6.7" class="cls-2" data-name="Path 6220"/>
            <path id="Path_6221" d="M83.9 117.2a7.718 7.718 0 1 1 10.6 2.6 7.6 7.6 0 0 1-10.6-2.6" class="cls-2" data-name="Path 6221"/>
            <path id="Path_6222" d="M105.9 163.3a7.718 7.718 0 1 1 10.6 2.6 7.6 7.6 0 0 1-10.6-2.6" class="cls-2" data-name="Path 6222"/>
            <path id="main_round_1_" d="M138.6 145.4a70.4 70.4 0 1 1 70.4 70.4 70.375 70.375 0 0 1-70.4-70.4" class="cls-2"/>
            <path id="Path_6223" d="M285.2 11.7a7.718 7.718 0 1 1 10.6 2.6 7.774 7.774 0 0 1-10.6-2.6" class="cls-2" data-name="Path 6223"/>
            <path id="Path_6224" d="M313.4 111.4a19.74 19.74 0 1 1 27.1 6.7 19.8 19.8 0 0 1-27.1-6.7" class="cls-2" data-name="Path 6224"/>
        </g>
        <g id="icon_1_">
            <path id="Path_6225" d="M214.8 109.1a7.9 7.9 0 1 0-7.9 7.9 7.853 7.853 0 0 0 7.9-7.9zm-13.1 0a5.3 5.3 0 1 1 5.3 5.3 5.209 5.209 0 0 1-5.3-5.3z" class="cls-3" data-name="Path 6225"/>
            <path id="Path_6226" d="M195.1 124.9v7.9a3.992 3.992 0 0 0 3.9 4h15.8a3.927 3.927 0 0 0 3.9-4v-7.9a6.594 6.594 0 0 0-6.6-6.6h-.3l-.3.1a10.38 10.38 0 0 1-9.4 0l-.3-.1h-.3a6.62 6.62 0 0 0-6.4 6.6zm2.6 0a3.866 3.866 0 0 1 3.7-3.9 13.434 13.434 0 0 0 11.1 0 3.933 3.933 0 0 1 3.7 3.9v7.9a1.324 1.324 0 0 1-1.3 1.3H199a1.324 1.324 0 0 1-1.3-1.3z" class="cls-3" data-name="Path 6226"/>
            <path id="Path_6227" d="M234.6 144.7a7.9 7.9 0 1 0 7.9 7.9 7.853 7.853 0 0 0-7.9-7.9zm0 13.2a5.3 5.3 0 1 1 5.3-5.3 5.4 5.4 0 0 1-5.3 5.3z" class="cls-3" data-name="Path 6227"/>
            <path id="Path_6228" d="M239.8 161.8h-.3l-.3.1a10.38 10.38 0 0 1-9.4 0l-.3-.1h-.3a6.594 6.594 0 0 0-6.6 6.6v7.9a3.9 3.9 0 0 0 3.9 3.9h15.8a3.9 3.9 0 0 0 3.9-3.9v-7.9a6.3 6.3 0 0 0-6.4-6.6zm4 14.5a1.324 1.324 0 0 1-1.3 1.3h-15.8a1.324 1.324 0 0 1-1.3-1.3v-7.9a3.866 3.866 0 0 1 3.7-3.9 13.434 13.434 0 0 0 11.1 0 3.933 3.933 0 0 1 3.7 3.9v7.9z" class="cls-3" data-name="Path 6228"/>
            <path id="Path_6229" d="M179.3 144.7a7.9 7.9 0 1 0 7.9 7.9 7.853 7.853 0 0 0-7.9-7.9zm0 13.2a5.3 5.3 0 1 1 5.3-5.3 5.4 5.4 0 0 1-5.3 5.3z" class="cls-3" data-name="Path 6229"/>
            <path id="Path_6230" d="M171.4 180.2h15.8a3.9 3.9 0 0 0 3.9-3.9v-7.9a6.594 6.594 0 0 0-6.6-6.6h-.3l-.3.1a10.38 10.38 0 0 1-9.4 0l-.3-.1h-.2a6.594 6.594 0 0 0-6.6 6.6v7.9a3.927 3.927 0 0 0 4 3.9zm-1.3-11.8a3.866 3.866 0 0 1 3.7-3.9 13.434 13.434 0 0 0 11.1 0 3.933 3.933 0 0 1 3.7 3.9v7.9a1.324 1.324 0 0 1-1.3 1.3h-15.8a1.324 1.324 0 0 1-1.3-1.3v-7.9z" class="cls-3" data-name="Path 6230"/>
            <path id="Path_6231" d="M220 168.1a1.278 1.278 0 0 0-1.7-.7 29.519 29.519 0 0 1-18.8 1.3l1.2-.4a1.3 1.3 0 1 0-.7-2.5l-5.3 1.5h-.1c-.1 0-.2.1-.3.2l-.1.1c-.1.1-.2.3-.3.4a1.087 1.087 0 0 0-.1.5 4.331 4.331 0 0 0 .1.5v.1l2.6 5a1.407 1.407 0 0 0 1.8.6 1.317 1.317 0 0 0 .6-1.8l-1.1-2a31.8 31.8 0 0 0 21.5-1.2 1.094 1.094 0 0 0 .7-1.6z" class="cls-3" data-name="Path 6231"/>
            <path id="Path_6232" d="M242.1 135.9a1.389 1.389 0 0 0-1.9 0l-1.9 1.9a31.71 31.71 0 0 0-19.1-26.1 1.3 1.3 0 1 0-1 2.4 28.815 28.815 0 0 1 17.4 23.3l-1.5-1.5a1.391 1.391 0 0 0-1.9 0 1.268 1.268 0 0 0 0 1.8l3.9 3.9a1.389 1.389 0 0 0 1.9 0l3.9-3.9a1.139 1.139 0 0 0 .2-1.8z" class="cls-3" data-name="Path 6232"/>
            <path id="Path_6233" d="M191.9 119.5a1.268 1.268 0 0 0 .6.1 1.387 1.387 0 0 0 1.2-.7l2.6-5.5c0-.1.1-.2.1-.3s0-.1.1-.2v-.5c0-.1-.1-.1-.1-.2a.215.215 0 0 0-.2-.2c-.1-.1-.2-.1-.3-.2l-.1-.1-5.3-2.4a1.248 1.248 0 0 0-1.7.7 1.32 1.32 0 0 0 .6 1.7l2.7 1.2a31.531 31.531 0 0 0-16.7 27.8 1.3 1.3 0 1 0 2.6 0 28.716 28.716 0 0 1 14.3-24.9l-1 2a1.234 1.234 0 0 0 .6 1.7z" class="cls-3" data-name="Path 6233"/>
        </g>
    </g>
</svg>
