<?xml version="1.0" encoding="utf-8"?>
<!-- Generator: Adobe Illustrator 22.1.0, SVG Export Plug-In . SVG Version: 6.00 Build 0)  -->
<svg version="1.1" id="image04" xmlns="http://www.w3.org/2000/svg" xmlns:xlink="http://www.w3.org/1999/xlink" x="0px" y="0px"
	 viewBox="0 0 350 250" enable-background="new 0 0 350 250" xml:space="preserve">
<g id="line">
	<line fill="none" stroke="#454547" stroke-miterlimit="10" x1="133.1" y1="134.3" x2="242" y2="128"/>
	<line fill="none" stroke="#454547" stroke-miterlimit="10" x1="278.7" y1="47.2" x2="242" y2="128"/>
	<line fill="none" stroke="#454547" stroke-miterlimit="10" x1="342.3" y1="161.3" x2="242" y2="128"/>
	<line fill="none" stroke="#454547" stroke-miterlimit="10" x1="19.7" y1="19.7" x2="133.1" y2="134.3"/>
	<line fill="none" stroke="#454547" stroke-miterlimit="10" x1="55" y1="242.3" x2="133.1" y2="134.3"/>
</g>
<g id="round">
	<path fill="#454547" d="M261.8,117.8c5.6,9.3,2.6,21.5-6.7,27.1c-9.3,5.6-21.5,2.6-27.1-6.7s-2.6-21.5,6.7-27.1
		C244.1,105.5,256.2,108.5,261.8,117.8"/>
	<path fill="#454547" d="M348.9,157.4c2.2,3.6,1,8.4-2.6,10.6c-3.6,2.2-8.4,1-10.6-2.6c-2.2-3.6-1-8.4,2.6-10.6
		C342,152.5,346.7,153.7,348.9,157.4"/>
	<path fill="#454547" d="M285.3,43.2c2.2,3.6,1,8.4-2.6,10.6c-3.6,2.2-8.4,1-10.6-2.6c-2.2-3.6-1-8.4,2.6-10.6
		C278.3,38.4,283.1,39.5,285.3,43.2"/>
	<path fill="#454547" d="M36.6,9.6c5.6,9.3,2.6,21.5-6.7,27.1c-9.3,5.6-21.5,2.6-27.1-6.7S0.2,8.4,9.6,2.8C18.9-2.8,31,0.2,36.6,9.6
		"/>
	<path id="main_round_1_" fill="#454547" d="M203.4,134.3c0,38.9-31.5,70.4-70.4,70.4c-38.9,0-70.4-31.5-70.4-70.4S94.2,64,133.1,64
		C171.9,64,203.4,95.5,203.4,134.3"/>
	<path fill="#454547" d="M61.6,238.3c2.2,3.6,1,8.4-2.6,10.6c-3.6,2.2-8.4,1-10.6-2.6c-2.2-3.6-1-8.4,2.6-10.6
		C54.7,233.5,59.4,234.7,61.6,238.3"/>
</g>
<g>
	<path fill="#93E328" d="M121.2,140.6c0,0-3.3,0-3.4,0c-0.4,0-0.8,0.2-1.1,0.5l-10,10c0,0,0-8.9,0-8.9c-0.1-0.9-0.8-1.6-1.8-1.6
		h-5.1c-0.4,0-0.7-0.3-0.7-0.7v-30.4c0-0.4,0.3-0.7,0.7-0.7h50.6c0.4,0,0.7,0.3,0.7,0.7v11.6c0,1,0.8,1.8,1.8,1.8
		c1,0,1.8-0.8,1.8-1.8v-11.6c0-2.3-1.9-4.2-4.2-4.2H99.8c-2.3,0-4.2,1.9-4.2,4.2v30.4c0,2.3,1.9,4.2,4.2,4.2h3.3v11.3
		c0,0.7,0.4,1.4,1.1,1.6c0.2,0.1,0.5,0.1,0.7,0.1c0.5,0,0.9-0.2,1.3-0.5l12.6-12.6h2.5c1,0,1.8-0.8,1.8-1.8
		C123,141.4,122.2,140.6,121.2,140.6z"/>
	<path fill="#93E328" d="M166.8,127.1h-35.4c-2.3,0-4.2,1.9-4.2,4.2V152c0,2.3,1.9,4.2,4.2,4.2h22.2l9,9c0.3,0.3,0.8,0.5,1.3,0.5
		c0.2,0,0.5,0,0.7-0.1c0.7-0.3,1.1-0.9,1.1-1.6v-7.7h1.2c2.3,0,4.2-1.9,4.2-4.2v-20.7C171,129,169.1,127.1,166.8,127.1z M167.4,152
		c0,0.4-0.3,0.7-0.7,0.7h-3c-0.9,0-1.7,0.7-1.8,1.6c0,0,0,5.3,0,5.3l-6.5-6.5c0,0,0,0,0,0c0,0,0,0-0.1-0.1c-0.3-0.3-0.7-0.4-1.2-0.4
		h-22.9c-0.4,0-0.7-0.3-0.7-0.7v-20.7c0-0.4,0.3-0.7,0.7-0.7h35.4c0.4,0,0.7,0.3,0.7,0.7V152z"/>
	<path fill="#93E328" d="M149,139.9c-1,0-1.8,0.8-1.8,1.8s0.8,1.8,1.8,1.8c1,0,1.8-0.8,1.8-1.8S150,139.9,149,139.9z"/>
	<path fill="#93E328" d="M108.9,117.1c-1,0-1.8,0.8-1.8,1.8s0.8,1.8,1.8,1.8h32.4c1,0,1.8-0.8,1.8-1.8s-0.8-1.8-1.8-1.8H108.9z"/>
	<path fill="#93E328" d="M121.2,128.8h-12.3c-1,0-1.8,0.8-1.8,1.8s0.8,1.8,1.8,1.8h12.3c1,0,1.8-0.8,1.8-1.8
		S122.2,128.8,121.2,128.8z"/>
	<path fill="#93E328" d="M140.8,139.9c-1,0-1.8,0.8-1.8,1.8s0.8,1.8,1.8,1.8c1,0,1.8-0.8,1.8-1.8S141.8,139.9,140.8,139.9z"/>
	<path fill="#93E328" d="M157.3,139.9c-1,0-1.8,0.8-1.8,1.8s0.8,1.8,1.8,1.8c1,0,1.8-0.8,1.8-1.8S158.3,139.9,157.3,139.9z"/>
</g>
<g>
</g>
<g>
</g>
<g>
</g>
<g>
</g>
<g>
</g>
<g>
</g>
</svg>
