<svg xmlns="http://www.w3.org/2000/svg" viewBox="0 0 350 250.004">
    <defs>
        <style>
            .cls-1{fill:#fff}.cls-2{fill:none;stroke:#fff;stroke-width:1.5px}.cls-3{fill:#507234}
        </style>
    </defs>
    <g id="_02" data-name="2" transform="translate(0 .004)">
        <path id="main_round_1_" d="M44.3 165.4a70.4 70.4 0 1 1 70.4 70.4 70.375 70.375 0 0 1-70.4-70.4" class="cls-1"/>
        <g id="line_1_">
            <path id="Line_64" d="M205.2 0L0 27.4" class="cls-2" data-name="Line 64" transform="translate(114.6 138.3)"/>
            <path id="Path_6133" d="M19.7 35.7q47.55 64.8 95.2 129.6" class="cls-2" data-name="Path 6133"/>
            <path id="Line_65" d="M0 80.8L57.9 0" class="cls-2" data-name="Line 65" transform="translate(57 165.2)"/>
            <path id="Line_66" d="M0 89L74.1 0" class="cls-2" data-name="Line 66" transform="translate(115.5 77.6)"/>
            <path id="Line_67" d="M53.7 0L0 21.8" class="cls-2" data-name="Line 67" transform="translate(189.6 55.8)"/>
            <path id="Line_68" d="M0 0l.2 62.8" class="cls-2" data-name="Line 68" transform="translate(189.4 15.3)"/>
        </g>
        <g id="icon_1_">
            <path id="Path_6134" d="M141.2 146.4l5.4 7.8h-10.8zm-8.8 9.6a1.23 1.23 0 0 0 1.1.7h6.2a25.013 25.013 0 0 1-9 15.3 26.382 26.382 0 0 1-16.2 6 26.674 26.674 0 0 1-20.4-10.4 1.21 1.21 0 1 0-1.9 1.5 27.392 27.392 0 0 0 40 4.7 27.393 27.393 0 0 0 9.9-17.2h6.8a1.255 1.255 0 0 0 1.1-.6 1.048 1.048 0 0 0-.1-1.2l-7.7-11.2a1.25 1.25 0 0 0-2 0l-7.7 11.2a1.048 1.048 0 0 0-.1 1.2z" class="cls-3" data-name="Path 6134"/>
            <path id="Path_6135" d="M93.2 149.3l-5.4 7.8-5.4-7.8zM86.8 160a1.25 1.25 0 0 0 2 0l7.7-11.2a1.063 1.063 0 0 0 .1-1.2 1.149 1.149 0 0 0-1.1-.6h-6.2a24.558 24.558 0 0 1 9-15.3 26.382 26.382 0 0 1 16.2-6 26.674 26.674 0 0 1 20.4 10.4 1.21 1.21 0 0 0 1.9-1.5 27.392 27.392 0 0 0-40-4.7 27.393 27.393 0 0 0-9.9 17.2h-6.8a1.255 1.255 0 0 0-1.1.6 1.048 1.048 0 0 0 .1 1.2z" class="cls-3" data-name="Path 6135"/>
            <path id="Path_6136" d="M114.3 143.9a8.073 8.073 0 0 1 5.9 2.4 8.776 8.776 0 0 1 2.5 5.9 8.1 8.1 0 0 1-2.3 5.7 9.143 9.143 0 0 0-2.6 6.2H111a9.63 9.63 0 0 0-2.6-6.2 7.827 7.827 0 0 1-2.2-5.8 8.5 8.5 0 0 1 8.1-8.2zm-10.5 8.1a10.41 10.41 0 0 0 2.9 7.5 6.6 6.6 0 0 1 1.9 4.6 1.3 1.3 0 0 0-1.1 1.3 1.2 1.2 0 0 0 1.2 1.1h11.5a1.2 1.2 0 0 0 0-2.4 6.542 6.542 0 0 1 1.9-4.5 10.611 10.611 0 0 0-7.7-17.9 10.412 10.412 0 0 0-10.6 10.3z" class="cls-3" data-name="Path 6136"/>
            <path id="Path_6137" d="M111 168.1a1.2 1.2 0 0 0 0 2.4h7.1a1.2 1.2 0 0 0 0-2.4z" class="cls-3" data-name="Path 6137"/>
            <path id="Path_6138" d="M115.5 138.2v-3.9a1.2 1.2 0 1 0-2.4 0v3.9a1.155 1.155 0 0 0 1.2 1.2 1.29 1.29 0 0 0 1.2-1.2z" class="cls-3" data-name="Path 6138"/>
            <path id="Path_6139" d="M124.7 143.2l2.9-2.7a1.2 1.2 0 0 0-1.6-1.8l-2.9 2.7a1.244 1.244 0 0 0-.1 1.7 1.087 1.087 0 0 0 1.7.1z" class="cls-3" data-name="Path 6139"/>
            <path id="Path_6140" d="M103.1 138.3a1.2 1.2 0 0 0-1.7 1.7l2.8 2.8a1.247 1.247 0 0 0 1.2.3 1.419 1.419 0 0 0 .9-.8 1.314 1.314 0 0 0-.3-1.2z" class="cls-3" data-name="Path 6140"/>
            <path id="Path_6141" d="M116.5 190.8a1.151 1.151 0 0 0-1.7 0l-1.3 1.3-1.3-1.3a1.2 1.2 0 1 0-1.7 1.7l1.3 1.3-1.3 1.3a1.2 1.2 0 1 0 1.7 1.7l1.3-1.3 1.3 1.3a1.2 1.2 0 1 0 1.7-1.7l-1.3-1.3 1.3-1.3a1.15 1.15 0 0 0 0-1.7z" class="cls-3" data-name="Path 6141"/>
            <path id="Path_6142" d="M85.4 190.7l-3.8 3.4-1.6-1.8a1.2 1.2 0 1 0-1.8 1.6l2.5 2.7a1.238 1.238 0 0 0 1.7.1l4.6-4.2a1.2 1.2 0 1 0-1.6-1.8z" class="cls-3" data-name="Path 6142"/>
            <path id="Path_6143" d="M146.3 202a8.3 8.3 0 1 1 8.3-8.3 8.28 8.28 0 0 1-8.3 8.3zm-32.8 0a8.3 8.3 0 1 1 8.3-8.3 8.28 8.28 0 0 1-8.3 8.3zm-30.8 0a8.3 8.3 0 1 1 8.3-8.3 8.41 8.41 0 0 1-8.3 8.3zm63.6-18.9a10.709 10.709 0 0 0-10.5 8.6l-11.9.1a10.875 10.875 0 0 0-10.4-8.7 10.709 10.709 0 0 0-10.5 8.6h-9.9a10.579 10.579 0 0 0-11.9-8.5 10.649 10.649 0 0 0 1.7 21.2 10.64 10.64 0 0 0 10.4-10.3h9.5a10.656 10.656 0 0 0 21.3 0h11.5a10.677 10.677 0 0 0 10.9 10.3 10.652 10.652 0 0 0-.2-21.3z" class="cls-3" data-name="Path 6143"/>
            <path id="Path_6144" d="M149 190.7l-3.8 3.4-1.6-1.8a1.2 1.2 0 0 0-1.8 1.6l2.5 2.7a1.238 1.238 0 0 0 1.7.1l4.6-4.2a1.2 1.2 0 1 0-1.6-1.8z" class="cls-3" data-name="Path 6144"/>
        </g>
        <g id="round_1_">
            <path id="Path_6145" d="M0 35.3A19.7 19.7 0 1 1 19.7 55 19.674 19.674 0 0 1 0 35.3" class="cls-1" data-name="Path 6145"/>
            <path id="Path_6146" d="M183.2 11.7a7.718 7.718 0 1 1 10.6 2.6 7.774 7.774 0 0 1-10.6-2.6" class="cls-1" data-name="Path 6146"/>
            <path id="Path_6147" d="M236.7 60a7.718 7.718 0 1 1 10.6 2.6 7.774 7.774 0 0 1-10.6-2.6" class="cls-1" data-name="Path 6147"/>
            <path id="Path_6148" d="M172.9 88a19.74 19.74 0 1 1 27.1 6.7 19.8 19.8 0 0 1-27.1-6.7" class="cls-1" data-name="Path 6148"/>
            <path id="Path_6149" d="M310.6 138a19.7 19.7 0 1 1 19.7 19.7 19.674 19.674 0 0 1-19.7-19.7" class="cls-1" data-name="Path 6149"/>
            <path id="Path_6150" d="M51.3 242.3A7.7 7.7 0 1 1 59 250a7.7 7.7 0 0 1-7.7-7.7" class="cls-1" data-name="Path 6150"/>
        </g>
    </g>
</svg>
